<mxfile host="65bd71144e">
    <diagram id="alpha-test-batch-jobs" name="αテストシステム バッチジョブ構成図">
        <mxGraphModel dx="1316" dy="1668" grid="1" gridSize="10" guides="1" tooltips="1" connect="1" arrows="1" fold="1" page="1" pageScale="1" pageWidth="1169" pageHeight="827" math="0" shadow="0">
            <root>
                <mxCell id="0"/>
                <mxCell id="1" parent="0"/>
                <mxCell id="cloud_boundary" value="AWS Cloud" style="points=[[0,0],[0.25,0],[0.5,0],[0.75,0],[1,0],[1,0.25],[1,0.5],[1,0.75],[1,1],[0.75,1],[0.5,1],[0.25,1],[0,1],[0,0.75],[0,0.5],[0,0.25]];outlineConnect=0;gradientColor=none;html=1;whiteSpace=wrap;fontSize=14;fontStyle=1;container=1;pointerEvents=0;collapsible=0;recursiveResize=0;shape=mxgraph.aws4.group;grIcon=mxgraph.aws4.group_aws_cloud_alt;strokeColor=#232F3E;fillColor=none;verticalAlign=top;align=left;spacingLeft=30;fontColor=#232F3E;dashed=0;" parent="1" vertex="1">
                    <mxGeometry x="40" y="40" width="1080" height="680" as="geometry"/>
                </mxCell>
                <mxCell id="event_bridge_group" value="Amazon EventBridge" style="fillColor=#f5f5f5;strokeColor=#666666;dashed=1;verticalAlign=top;fontStyle=1;fontSize=14;fontColor=#333333;" parent="cloud_boundary" vertex="1">
                    <mxGeometry x="40" y="60" width="220" height="580" as="geometry"/>
                </mxCell>
                <mxCell id="lambda_group" value="AWS Lambda" style="fillColor=#f5f5f5;strokeColor=#666666;dashed=1;verticalAlign=top;fontStyle=1;fontSize=14;fontColor=#333333;" parent="cloud_boundary" vertex="1">
                    <mxGeometry x="300" y="60" width="240" height="580" as="geometry"/>
                </mxCell>
                <mxCell id="neondb_group" value="Neon DB (外部 PostgreSQL)" style="fillColor=#EFF7FB;strokeColor=#6c8ebf;dashed=1;verticalAlign=top;fontStyle=1;fontSize=14;" parent="cloud_boundary" vertex="1">
                    <mxGeometry x="800" y="280" width="240" height="220" as="geometry"/>
                </mxCell>
                <mxCell id="cloudwatch_group" value="Amazon CloudWatch" style="fillColor=#f5f5f5;strokeColor=#666666;dashed=1;verticalAlign=top;fontStyle=1;fontSize=14;fontColor=#333333;" parent="cloud_boundary" vertex="1">
                    <mxGeometry x="800" y="60" width="240" height="180" as="geometry"/>
                </mxCell>
                <mxCell id="external_api_group" value="外部サービス" style="fillColor=#fff2cc;strokeColor=#d6b656;dashed=1;verticalAlign=top;fontStyle=1;fontSize=14;" vertex="1" parent="cloud_boundary">
                    <mxGeometry x="580" y="60" width="180" height="580" as="geometry"/>
                </mxCell>
                <mxCell id="price_update_rule" value="トークン価格更新ルール&#xa;(10分間隔)" style="sketch=0;outlineConnect=0;fontColor=#232F3E;gradientColor=none;fillColor=#B0084D;strokeColor=none;dashed=0;verticalLabelPosition=bottom;verticalAlign=top;align=center;html=1;fontSize=11;fontStyle=0;aspect=fixed;pointerEvents=1;shape=mxgraph.aws4.rule_2;" parent="cloud_boundary" vertex="1">
                    <mxGeometry x="120" y="110" width="40" height="40" as="geometry"/>
                </mxCell>
                <mxCell id="daily_interest_rule" value="日次利息適用ルール&#xa;(毎日0時)" style="sketch=0;outlineConnect=0;fontColor=#232F3E;gradientColor=none;fillColor=#B0084D;strokeColor=none;dashed=0;verticalLabelPosition=bottom;verticalAlign=top;align=center;html=1;fontSize=11;fontStyle=0;aspect=fixed;pointerEvents=1;shape=mxgraph.aws4.rule_2;" parent="cloud_boundary" vertex="1">
                    <mxGeometry x="120" y="198" width="40" height="40" as="geometry"/>
                </mxCell>
                <mxCell id="funding_rate_rule" value="Funding Rate適用ルール&#xa;(8時間間隔)" style="sketch=0;outlineConnect=0;fontColor=#232F3E;gradientColor=none;fillColor=#B0084D;strokeColor=none;dashed=0;verticalLabelPosition=bottom;verticalAlign=top;align=center;html=1;fontSize=11;fontStyle=0;aspect=fixed;pointerEvents=1;shape=mxgraph.aws4.rule_2;" parent="cloud_boundary" vertex="1">
                    <mxGeometry x="120" y="288" width="40" height="40" as="geometry"/>
                </mxCell>
                <mxCell id="portfolio_snapshot_rule" value="ポートフォリオ&#xa;スナップショットルール&#xa;(1時間間隔)" style="sketch=0;outlineConnect=0;fontColor=#232F3E;gradientColor=none;fillColor=#B0084D;strokeColor=none;dashed=0;verticalLabelPosition=bottom;verticalAlign=top;align=center;html=1;fontSize=11;fontStyle=0;aspect=fixed;pointerEvents=1;shape=mxgraph.aws4.rule_2;" parent="cloud_boundary" vertex="1">
                    <mxGeometry x="120" y="458" width="40" height="40" as="geometry"/>
                </mxCell>
                <mxCell id="data_pruning_rule" value="古いデータ間引きルール&#xa;(週1回)" style="sketch=0;outlineConnect=0;fontColor=#232F3E;gradientColor=none;fillColor=#B0084D;strokeColor=none;dashed=0;verticalLabelPosition=bottom;verticalAlign=top;align=center;html=1;fontSize=11;fontStyle=0;aspect=fixed;pointerEvents=1;shape=mxgraph.aws4.rule_2;" parent="cloud_boundary" vertex="1">
                    <mxGeometry x="120" y="558" width="40" height="40" as="geometry"/>
                </mxCell>
                <mxCell id="price_update_lambda" value="トークン価格更新Lambda" style="sketch=0;outlineConnect=0;fontColor=#232F3E;gradientColor=none;fillColor=#D45B07;strokeColor=none;dashed=0;verticalLabelPosition=bottom;verticalAlign=top;align=center;html=1;fontSize=11;fontStyle=0;aspect=fixed;pointerEvents=1;shape=mxgraph.aws4.lambda_function;" parent="cloud_boundary" vertex="1">
                    <mxGeometry x="392" y="102" width="56" height="56" as="geometry"/>
                </mxCell>
                <mxCell id="daily_interest_lambda" value="日次利息適用Lambda" style="sketch=0;outlineConnect=0;fontColor=#232F3E;gradientColor=none;fillColor=#D45B07;strokeColor=none;dashed=0;verticalLabelPosition=bottom;verticalAlign=top;align=center;html=1;fontSize=11;fontStyle=0;aspect=fixed;pointerEvents=1;shape=mxgraph.aws4.lambda_function;" parent="cloud_boundary" vertex="1">
                    <mxGeometry x="392" y="190" width="56" height="56" as="geometry"/>
                </mxCell>
                <mxCell id="funding_rate_lambda" value="Funding Rate適用Lambda" style="sketch=0;outlineConnect=0;fontColor=#232F3E;gradientColor=none;fillColor=#D45B07;strokeColor=none;dashed=0;verticalLabelPosition=bottom;verticalAlign=top;align=center;html=1;fontSize=11;fontStyle=0;aspect=fixed;pointerEvents=1;shape=mxgraph.aws4.lambda_function;" parent="cloud_boundary" vertex="1">
                    <mxGeometry x="392" y="280" width="56" height="56" as="geometry"/>
                </mxCell>
                <mxCell id="liquidation_check_lambda" value="清算チェックLambda" style="sketch=0;outlineConnect=0;fontColor=#232F3E;gradientColor=none;fillColor=#D45B07;strokeColor=none;dashed=0;verticalLabelPosition=bottom;verticalAlign=top;align=center;html=1;fontSize=11;fontStyle=0;aspect=fixed;pointerEvents=1;shape=mxgraph.aws4.lambda_function;" parent="cloud_boundary" vertex="1">
                    <mxGeometry x="392" y="370" width="56" height="56" as="geometry"/>
                </mxCell>
                <mxCell id="portfolio_snapshot_lambda" value="ポートフォリオ&#xa;スナップショットLambda" style="sketch=0;outlineConnect=0;fontColor=#232F3E;gradientColor=none;fillColor=#D45B07;strokeColor=none;dashed=0;verticalLabelPosition=bottom;verticalAlign=top;align=center;html=1;fontSize=11;fontStyle=0;aspect=fixed;pointerEvents=1;shape=mxgraph.aws4.lambda_function;" parent="cloud_boundary" vertex="1">
                    <mxGeometry x="392" y="450" width="56" height="56" as="geometry"/>
                </mxCell>
                <mxCell id="data_pruning_lambda" value="データ間引きLambda" style="sketch=0;outlineConnect=0;fontColor=#232F3E;gradientColor=none;fillColor=#D45B07;strokeColor=none;dashed=0;verticalLabelPosition=bottom;verticalAlign=top;align=center;html=1;fontSize=11;fontStyle=0;aspect=fixed;pointerEvents=1;shape=mxgraph.aws4.lambda_function;" parent="cloud_boundary" vertex="1">
                    <mxGeometry x="392" y="550" width="56" height="56" as="geometry"/>
                </mxCell>
                <mxCell id="cloudwatch_logs" value="CloudWatch Logs" style="sketch=0;outlineConnect=0;fontColor=#232F3E;gradientColor=none;fillColor=#E7157B;strokeColor=none;dashed=0;verticalLabelPosition=bottom;verticalAlign=top;align=center;html=1;fontSize=11;fontStyle=0;aspect=fixed;pointerEvents=1;shape=mxgraph.aws4.logs;" parent="cloud_boundary" vertex="1">
                    <mxGeometry x="850" y="110" width="48" height="48" as="geometry"/>
                </mxCell>
                <mxCell id="cloudwatch_alarms" value="CloudWatch Alarms" style="sketch=0;outlineConnect=0;fontColor=#232F3E;gradientColor=none;fillColor=#E7157B;strokeColor=none;dashed=0;verticalLabelPosition=bottom;verticalAlign=top;align=center;html=1;fontSize=11;fontStyle=0;aspect=fixed;pointerEvents=1;shape=mxgraph.aws4.alarm;" parent="cloud_boundary" vertex="1">
                    <mxGeometry x="950" y="110" width="48" height="48" as="geometry"/>
                </mxCell>
                <mxCell id="neondb" value="NeonDB PostgreSQL" style="sketch=0;outlineConnect=0;fontColor=#232F3E;gradientColor=none;fillColor=#2E73B8;strokeColor=none;dashed=0;verticalLabelPosition=bottom;verticalAlign=top;align=center;html=1;fontSize=11;fontStyle=0;aspect=fixed;pointerEvents=1;shape=mxgraph.aws4.rds_postgresql_instance;" parent="cloud_boundary" vertex="1">
                    <mxGeometry x="850" y="340" width="48" height="48" as="geometry"/>
                </mxCell>
                <mxCell id="db_connection_pool" value="コネクションプール" style="rounded=1;whiteSpace=wrap;html=1;fillColor=#dae8fc;strokeColor=#6c8ebf;fontSize=11;" parent="cloud_boundary" vertex="1">
                    <mxGeometry x="824" y="430" width="100" height="40" as="geometry"/>
                </mxCell>
                <mxCell id="jupiter_api" value="Jupiter API&#xa;(トークン価格情報)" style="sketch=0;outlineConnect=0;fontColor=#232F3E;gradientColor=none;fillColor=#232F3D;strokeColor=none;dashed=0;verticalLabelPosition=bottom;verticalAlign=top;align=center;html=1;fontSize=11;fontStyle=0;aspect=fixed;pointerEvents=1;shape=mxgraph.aws4.external_sdk;" vertex="1" parent="cloud_boundary">
                    <mxGeometry x="640" y="110" width="56" height="56" as="geometry"/>
                </mxCell>
                <mxCell id="market_data_api" value="Market Data API&#xa;(Funding Rate取得)" style="sketch=0;outlineConnect=0;fontColor=#232F3E;gradientColor=none;fillColor=#232F3D;strokeColor=none;dashed=0;verticalLabelPosition=bottom;verticalAlign=top;align=center;html=1;fontSize=11;fontStyle=0;aspect=fixed;pointerEvents=1;shape=mxgraph.aws4.external_sdk;" vertex="1" parent="cloud_boundary">
                    <mxGeometry x="640" y="280" width="56" height="56" as="geometry"/>
                </mxCell>

                <!-- 矢印の再接続 -->
                <!-- EventBridge からLambdaへの接続 -->
                <mxCell id="price_rule_to_lambda" value="" style="edgeStyle=orthogonalEdgeStyle;rounded=0;orthogonalLoop=1;jettySize=auto;html=1;" parent="cloud_boundary" edge="1">
                    <mxGeometry relative="1" as="geometry">
                        <mxPoint x="160" y="130" as="sourcePoint"/>
                        <mxPoint x="392" y="130" as="targetPoint"/>
                    </mxGeometry>
                </mxCell>

                <mxCell id="interest_rule_to_lambda" value="" style="edgeStyle=orthogonalEdgeStyle;rounded=0;orthogonalLoop=1;jettySize=auto;html=1;" parent="cloud_boundary" edge="1">
                    <mxGeometry relative="1" as="geometry">
                        <mxPoint x="160" y="218" as="sourcePoint"/>
                        <mxPoint x="392" y="218" as="targetPoint"/>
                    </mxGeometry>
                </mxCell>

                <mxCell id="funding_rule_to_lambda" value="" style="edgeStyle=orthogonalEdgeStyle;rounded=0;orthogonalLoop=1;jettySize=auto;html=1;" parent="cloud_boundary" edge="1">
                    <mxGeometry relative="1" as="geometry">
                        <mxPoint x="160" y="308" as="sourcePoint"/>
                        <mxPoint x="392" y="308" as="targetPoint"/>
                    </mxGeometry>
                </mxCell>

                <mxCell id="liquidation_rule_to_lambda" value="" style="edgeStyle=orthogonalEdgeStyle;rounded=0;orthogonalLoop=1;jettySize=auto;html=1;" parent="cloud_boundary" edge="1">
                    <mxGeometry relative="1" as="geometry">
                        <mxPoint x="160" y="390" as="sourcePoint"/>
                        <mxPoint x="392" y="390" as="targetPoint"/>
                    </mxGeometry>
                </mxCell>

                <mxCell id="snapshot_rule_to_lambda" value="" style="edgeStyle=orthogonalEdgeStyle;rounded=0;orthogonalLoop=1;jettySize=auto;html=1;" parent="cloud_boundary" edge="1">
                    <mxGeometry relative="1" as="geometry">
                        <mxPoint x="160" y="478" as="sourcePoint"/>
                        <mxPoint x="392" y="478" as="targetPoint"/>
                    </mxGeometry>
                </mxCell>

                <mxCell id="pruning_rule_to_lambda" value="" style="edgeStyle=orthogonalEdgeStyle;rounded=0;orthogonalLoop=1;jettySize=auto;html=1;" parent="cloud_boundary" edge="1">
                    <mxGeometry relative="1" as="geometry">
                        <mxPoint x="160" y="578" as="sourcePoint"/>
                        <mxPoint x="392" y="578" as="targetPoint"/>
                    </mxGeometry>
                </mxCell>

                <!-- Lambdaから外部APIへの接続 -->
                <mxCell id="price_lambda_to_api" value="" style="edgeStyle=orthogonalEdgeStyle;rounded=0;orthogonalLoop=1;jettySize=auto;html=1;startArrow=classic;startFill=1;" edge="1" parent="cloud_boundary">
                    <mxGeometry relative="1" as="geometry">
                        <mxPoint x="448" y="138" as="sourcePoint"/>
                        <mxPoint x="640" y="138" as="targetPoint"/>
                    </mxGeometry>
                </mxCell>

                <mxCell id="funding_lambda_to_api" value="" style="edgeStyle=orthogonalEdgeStyle;rounded=0;orthogonalLoop=1;jettySize=auto;html=1;startArrow=classic;startFill=1;" edge="1" parent="cloud_boundary">
                    <mxGeometry relative="1" as="geometry">
                        <mxPoint x="448" y="308" as="sourcePoint"/>
                        <mxPoint x="640" y="308" as="targetPoint"/>
                    </mxGeometry>
                </mxCell>

                <!-- Lambdaから NeonDBへの接続 -->
                <mxCell id="lambda_to_db1" value="" style="edgeStyle=orthogonalEdgeStyle;rounded=0;orthogonalLoop=1;jettySize=auto;html=1;startArrow=none;startFill=0;endArrow=classic;endFill=1;" edge="1" parent="cloud_boundary">
                    <mxGeometry relative="1" as="geometry">
                        <mxPoint x="448" y="218" as="sourcePoint"/>
                        <mxPoint x="800" y="364" as="targetPoint"/>
                        <Array as="points">
                            <mxPoint x="520" y="218"/>
                            <mxPoint x="520" y="364"/>
                        </Array>
                    </mxGeometry>
                </mxCell>

                <mxCell id="lambda_to_db2" value="" style="edgeStyle=orthogonalEdgeStyle;rounded=0;orthogonalLoop=1;jettySize=auto;html=1;startArrow=none;startFill=0;endArrow=classic;endFill=1;" edge="1" parent="cloud_boundary">
                    <mxGeometry relative="1" as="geometry">
                        <mxPoint x="448" y="478" as="sourcePoint"/>
                        <mxPoint x="800" y="400" as="targetPoint"/>
                        <Array as="points">
                            <mxPoint x="520" y="478"/>
                            <mxPoint x="520" y="400"/>
                        </Array>
                    </mxGeometry>
                </mxCell>

                <!-- Lambda から CloudWatch Logsへの接続 -->
                <mxCell id="lambda_to_logs" value="" style="edgeStyle=orthogonalEdgeStyle;rounded=0;orthogonalLoop=1;jettySize=auto;html=1;exitX=1;exitY=0.25;exitDx=0;exitDy=0;entryX=0;entryY=0.5;entryDx=0;entryDy=0;startArrow=none;startFill=0;endArrow=classic;endFill=1;" parent="cloud_boundary" source="lambda_group" target="cloudwatch_group" edge="1">
                    <mxGeometry relative="1" as="geometry"/>
                </mxCell>

                <mxCell id="liquidation_check_rule" value="清算チェックルール&#xa;(5分間隔)" style="sketch=0;outlineConnect=0;fontColor=#232F3E;gradientColor=none;fillColor=#B0084D;strokeColor=none;dashed=0;verticalLabelPosition=bottom;verticalAlign=top;align=center;html=1;fontSize=11;fontStyle=0;aspect=fixed;pointerEvents=1;shape=mxgraph.aws4.rule_2;" parent="cloud_boundary" vertex="1">
                    <mxGeometry x="120" y="370" width="40" height="40" as="geometry"/>
                </mxCell>

                <!-- Lambda から他のLambdaへのデータフロー（オプション） -->
                <mxCell id="lambda_to_lambda1" value="" style="edgeStyle=orthogonalEdgeStyle;rounded=0;orthogonalLoop=1;jettySize=auto;html=1;startArrow=none;startFill=0;endArrow=classic;endFill=1;exitX=0;exitY=0.75;exitDx=0;exitDy=0;entryX=0;entryY=0.25;entryDx=0;entryDy=0;dashed=1;" edge="1" parent="cloud_boundary">
                    <mxGeometry relative="1" as="geometry">
                        <mxPoint x="392" y="149" as="sourcePoint"/>
                        <mxPoint x="392" y="370" as="targetPoint"/>
                        <Array as="points">
                            <mxPoint x="360" y="149"/>
                            <mxPoint x="360" y="370"/>
                        </Array>
                    </mxGeometry>
                </mxCell>

                <mxCell id="lambda_to_lambda2" value="" style="edgeStyle=orthogonalEdgeStyle;rounded=0;orthogonalLoop=1;jettySize=auto;html=1;startArrow=none;startFill=0;endArrow=classic;endFill=1;exitX=0;exitY=0.75;exitDx=0;exitDy=0;entryX=0;entryY=0.25;entryDx=0;entryDy=0;dashed=1;" edge="1" parent="cloud_boundary">
                    <mxGeometry relative="1" as="geometry">
                        <mxPoint x="392" y="412" as="sourcePoint"/>
                        <mxPoint x="392" y="478" as="targetPoint"/>
                        <Array as="points">
                            <mxPoint x="360" y="412"/>
                            <mxPoint x="360" y="478"/>
                        </Array>
                    </mxGeometry>
                </mxCell>
            </root>
        </mxGraphModel>
    </diagram>
</mxfile>